<?xml version="1.0" encoding="UTF-8" standalone="no"?><!DOCTYPE svg PUBLIC "-//W3C//DTD SVG 1.1//EN" "http://www.w3.org/Graphics/SVG/1.1/DTD/svg11.dtd"><svg width="100%" height="100%" viewBox="0 0 1182 1182" version="1.1" xmlns="http://www.w3.org/2000/svg" xmlns:xlink="http://www.w3.org/1999/xlink" xml:space="preserve" xmlns:serif="http://www.serif.com/" style="fill-rule:evenodd;clip-rule:evenodd;stroke-linejoin:round;stroke-miterlimit:2;"><rect id="ArtBoard3" x="-0" y="0" width="1181.1" height="1181.2" style="fill:none;"/><clipPath id="_clip1"><rect x="-0" y="0" width="1181.1" height="1181.2"/></clipPath><g clip-path="url(#_clip1)"><path d="M678.075,997.979l-506.274,-0c-94.82,-0 -171.801,-73.945 -171.801,-165.023l-0,-667.933c-0,-91.079 76.981,-165.023 171.801,-165.023l837.501,-0c94.819,-0 171.8,73.944 171.8,165.023l0,667.933c0,86.52 -69.468,157.578 -157.706,164.474l-0.172,0.549l-36.942,-0c0,-0 -24.186,4.429 -34.55,12.382c-54.084,41.502 -212.339,170.843 -247.043,170.843c-50.959,-0 12.87,-136.27 0,-166.224c-7.305,-17.001 -26.614,-17.001 -26.614,-17.001Z" style="fill:#207bac;"/><g transform="matrix(1,0,0,1,-50.6305,-1428.12)"><text x="384.427px" y="1742.53px" style="font-family:'Inter28pt-Bold', 'Inter 28pt';font-weight:700;font-size:208.333px;fill:#fdd702;">Neue</text><text x="134.844px" y="2000.87px" style="font-family:'Inter28pt-Bold', 'Inter 28pt';font-weight:700;font-size:208.333px;fill:#fdd702;">Ler<tspan x="450.599px " y="2000.87px ">n</tspan>kul<tspan x="867.876px " y="2000.87px ">t</tspan>ur</text><g transform="matrix(208.333,0,0,208.333,891.782,2259.2)"></g><text x="390.582px" y="2259.2px" style="font-family:'Inter28pt-Bold', 'Inter 28pt';font-weight:700;font-size:208.333px;fill:#fdd702;">Jetzt</text></g></g></svg>