<?xml version="1.0" encoding="UTF-8" standalone="no"?><!DOCTYPE svg PUBLIC "-//W3C//DTD SVG 1.1//EN" "http://www.w3.org/Graphics/SVG/1.1/DTD/svg11.dtd"><svg width="100%" height="100%" viewBox="0 0 1182 1182" version="1.1" xmlns="http://www.w3.org/2000/svg" xmlns:xlink="http://www.w3.org/1999/xlink" xml:space="preserve" xmlns:serif="http://www.serif.com/" style="fill-rule:evenodd;clip-rule:evenodd;stroke-linejoin:round;stroke-miterlimit:2;"><rect id="ArtBoard3" x="-0" y="0" width="1181.2" height="1181.2" style="fill:none;"/><path d="M665.675,975.244l-433.172,0c-81.128,0 -146.994,-65.865 -146.994,-146.994l-0,-594.962c-0,-81.128 65.866,-146.993 146.994,-146.993l716.572,-0c81.128,-0 146.994,65.865 146.994,146.993l-0,594.962c-0,77.068 -59.438,140.363 -134.935,146.506l-0.147,0.488l-31.608,0c0,0 -20.693,3.946 -29.561,11.03c-46.275,36.968 -181.679,152.178 -211.372,152.178c-43.601,0 11.012,-121.382 -0,-148.063c-6.251,-15.145 -22.771,-15.145 -22.771,-15.145Z" style="fill:#207bac;"/><g transform="matrix(1,0,0,1,34.8783,-1341.83)"><text x="312.11px" y="1693.03px" style="font-family:'Rubik-Bold', 'Rubik';font-weight:700;font-size:200px;fill:#fdd702;">Gute</text><text x="211.51px" y="1943.03px" style="font-family:'Rubik-Bold', 'Rubik';font-weight:700;font-size:200px;fill:#fdd702;">Schule</text><g transform="matrix(200,0,0,200,833.41,2193.02)"></g><text x="278.41px" y="2193.03px" style="font-family:'Rubik-Bold', 'Rubik';font-weight:700;font-size:200px;fill:#fdd702;">Je<tspan x="532.41px " y="2193.03px ">t</tspan>zt</text></g></svg>