<?xml version="1.0" encoding="UTF-8" standalone="no"?><!DOCTYPE svg PUBLIC "-//W3C//DTD SVG 1.1//EN" "http://www.w3.org/Graphics/SVG/1.1/DTD/svg11.dtd"><svg width="100%" height="100%" viewBox="0 0 1314 1182" version="1.1" xmlns="http://www.w3.org/2000/svg" xmlns:xlink="http://www.w3.org/1999/xlink" xml:space="preserve" xmlns:serif="http://www.serif.com/" style="fill-rule:evenodd;clip-rule:evenodd;stroke-linejoin:round;stroke-miterlimit:2;"><rect id="ArtBoard3" x="0" y="0" width="1313.61" height="1181.2" style="fill:none;"/><path d="M767.375,1004.48l-509.105,-0c-95.349,-0 -172.761,-71.32 -172.761,-159.167l-0,-644.23c-0,-87.846 77.412,-159.166 172.761,-159.166l842.184,-0c95.35,-0 172.761,71.32 172.761,159.166l0,644.23c0,83.45 -69.857,151.987 -158.587,158.638l-0.173,0.529l-37.149,-0c0,-0 -24.321,4.272 -34.744,11.943c-54.386,40.029 -213.526,164.78 -248.424,164.78c-51.243,-0 12.942,-131.434 0,-160.325c-7.346,-16.398 -26.763,-16.398 -26.763,-16.398Z" style="fill:#207bac;"/><g transform="matrix(1,0,0,1,62.8173,-1386.2)"><text x="360.645px" y="1729.88px" style="font-family:'Rubik-Bold', 'Rubik';font-weight:700;font-size:200px;fill:#fdd702;">Neue</text><text x="76.445px" y="1979.88px" style="font-family:'Rubik-Bold', 'Rubik';font-weight:700;font-size:200px;fill:#fdd702;">L<tspan x="195.645px " y="1979.88px ">e</tspan>rnk<tspan x="654.045px " y="1979.88px ">u</tspan>ltur</text><g transform="matrix(200,0,0,200,894.045,2229.88)"></g><text x="339.045px" y="2229.88px" style="font-family:'Rubik-Bold', 'Rubik';font-weight:700;font-size:200px;fill:#fdd702;">Je<tspan x="593.045px " y="2229.88px ">t</tspan>zt</text></g></svg>