<?xml version="1.0" encoding="UTF-8" standalone="no"?>
<!DOCTYPE svg PUBLIC "-//W3C//DTD SVG 1.1//EN" "http://www.w3.org/Graphics/SVG/1.1/DTD/svg11.dtd">
<svg width="100%" height="100%" viewBox="0 0 899 358" version="1.1" xmlns="http://www.w3.org/2000/svg" xmlns:xlink="http://www.w3.org/1999/xlink" xml:space="preserve" xmlns:serif="http://www.serif.com/" style="fill-rule:evenodd;clip-rule:evenodd;stroke-linejoin:round;stroke-miterlimit:2;">
    <g transform="matrix(1,0,0,1,-6598.51,-1776.39)">
        <g transform="matrix(3.95225,0,0,3.16136,14526.9,-3589.23)">
            <g transform="matrix(0.446918,0,0,0.672029,-1130.74,40.1862)">
                <g transform="matrix(0.417382,0,0,0.347012,-2127.42,1796.99)">
                    <path d="M636.859,1927.22L636.859,2159.47L404.604,2159.47L404.604,1996.74C404.604,1958.37 435.754,1927.22 474.122,1927.22L636.859,1927.22Z" style="fill:rgb(32,123,172);"/>
                </g>
                <g transform="matrix(0.417382,0,0,0.347012,-2019.54,1796.99)">
                    <path d="M636.859,1996.89L636.859,2159.47L404.604,2159.47L404.604,1927.22L567.182,1927.22C605.638,1927.22 636.859,1958.44 636.859,1996.89Z" style="fill:rgb(253,212,3);"/>
                </g>
                <g transform="matrix(0.417382,0,0,0.347012,-2127.42,1884.84)">
                    <path d="M636.859,1927.22L636.859,2159.47L474.28,2159.47C435.825,2159.47 404.604,2128.25 404.604,2089.8L404.604,1927.22L636.859,1927.22Z" style="fill:rgb(233,27,98);"/>
                </g>
                <g transform="matrix(0.417382,0,0,0.347012,-2019.54,1884.84)">
                    <path d="M636.859,1927.22L636.859,2089.8C636.859,2128.25 605.638,2159.47 567.182,2159.47L404.604,2159.47L404.604,1927.22L636.859,1927.22Z" style="fill:rgb(78,176,77);"/>
                </g>
                <g transform="matrix(0.566144,0,0,0.470693,-2184.44,1596.85)">
                    <g transform="matrix(150,0,0,150,442.102,2172.84)">
                        <path d="M0.269,0.011C0.195,0.011 0.136,-0.009 0.094,-0.049C0.051,-0.089 0.03,-0.146 0.03,-0.22L0.03,-0.268L0.173,-0.268L0.173,-0.219C0.173,-0.185 0.181,-0.159 0.198,-0.141C0.215,-0.124 0.238,-0.115 0.268,-0.115C0.297,-0.115 0.319,-0.124 0.336,-0.141C0.353,-0.159 0.362,-0.185 0.362,-0.219L0.362,-0.728L0.512,-0.728L0.512,-0.218C0.512,-0.145 0.49,-0.088 0.447,-0.049C0.403,-0.009 0.344,0.011 0.269,0.011Z" style="fill:white;fill-rule:nonzero;"/>
                    </g>
                </g>
                <g transform="matrix(0.566144,0,0,0.470693,-2184.44,1509)">
                    <g transform="matrix(150,0,0,150,429.578,2172.84)">
                        <path d="M0.014,-0L0.134,-0.728L0.292,-0.728L0.464,-0.356C0.47,-0.343 0.477,-0.327 0.485,-0.307C0.493,-0.288 0.501,-0.266 0.51,-0.243C0.519,-0.22 0.527,-0.196 0.534,-0.173L0.514,-0.143C0.516,-0.166 0.519,-0.192 0.523,-0.221C0.527,-0.251 0.531,-0.279 0.534,-0.305C0.538,-0.332 0.541,-0.354 0.544,-0.37L0.604,-0.728L0.754,-0.728L0.633,-0L0.476,-0L0.32,-0.336C0.312,-0.353 0.304,-0.372 0.294,-0.395C0.285,-0.417 0.274,-0.443 0.263,-0.472C0.252,-0.501 0.24,-0.533 0.227,-0.566L0.252,-0.58C0.249,-0.544 0.245,-0.51 0.24,-0.479C0.236,-0.447 0.233,-0.419 0.229,-0.395C0.226,-0.371 0.223,-0.351 0.22,-0.337L0.165,-0L0.014,-0Z" style="fill:white;fill-rule:nonzero;"/>
                    </g>
                </g>
                <g transform="matrix(0.566144,0,0,0.470693,-2076.55,1509)">
                    <g transform="matrix(150,0,0,150,442.716,2172.84)">
                        <path d="M0.057,-0L0.057,-0.728L0.207,-0.728L0.207,-0.127L0.534,-0.127L0.534,-0L0.057,-0Z" style="fill:rgb(32,123,172);fill-rule:nonzero;"/>
                    </g>
                </g>
                <g transform="matrix(0.566144,0,0,0.470693,-2076.55,1596.85)">
                    <g transform="matrix(166.667,0,0,166.667,462.394,2178.9)">
                        <path d="M0.061,-0.218L0.133,-0.728L0.288,-0.728L0.19,-0.218L0.061,-0.218ZM0.095,0.009C0.07,0.009 0.05,-0 0.035,-0.018C0.021,-0.036 0.015,-0.058 0.02,-0.083C0.023,-0.105 0.033,-0.122 0.05,-0.136C0.067,-0.15 0.086,-0.157 0.107,-0.157C0.132,-0.157 0.152,-0.148 0.167,-0.13C0.182,-0.112 0.187,-0.09 0.183,-0.065C0.18,-0.044 0.169,-0.027 0.153,-0.012C0.136,0.002 0.117,0.009 0.095,0.009Z" style="fill:white;fill-rule:nonzero;"/>
                    </g>
                </g>
            </g>
        </g>
        <g transform="matrix(3.95225,0,0,3.16136,14526.9,-3589.23)">
            <g transform="matrix(0.25302,0,0,0.316319,-2002.25,1063.55)">
                <g transform="matrix(100,0,0,100,399.006,2118.68)">
                    <path d="M0.057,-0L0.057,-0.728L0.217,-0.728L0.45,-0.356C0.458,-0.343 0.468,-0.327 0.479,-0.307C0.49,-0.287 0.502,-0.266 0.514,-0.243C0.527,-0.22 0.538,-0.196 0.55,-0.173L0.533,-0.143C0.532,-0.166 0.531,-0.192 0.53,-0.221C0.528,-0.251 0.528,-0.279 0.527,-0.305C0.526,-0.332 0.526,-0.354 0.526,-0.37L0.526,-0.728L0.677,-0.728L0.677,-0L0.516,-0L0.305,-0.336C0.295,-0.353 0.283,-0.372 0.27,-0.395C0.256,-0.418 0.242,-0.444 0.226,-0.473C0.21,-0.502 0.193,-0.533 0.175,-0.566L0.199,-0.58C0.201,-0.544 0.203,-0.51 0.204,-0.479C0.205,-0.447 0.206,-0.419 0.207,-0.395C0.207,-0.371 0.208,-0.351 0.208,-0.337L0.208,-0L0.057,-0Z" style="fill:rgb(231,246,255);fill-rule:nonzero;"/>
                </g>
                <g transform="matrix(100,0,0,100,472.346,2118.68)">
                    <path d="M0.292,0.012C0.238,0.012 0.192,0 0.153,-0.023C0.114,-0.046 0.084,-0.078 0.063,-0.119C0.041,-0.16 0.031,-0.207 0.031,-0.26C0.031,-0.314 0.042,-0.361 0.063,-0.402C0.085,-0.443 0.115,-0.475 0.153,-0.498C0.191,-0.522 0.236,-0.533 0.286,-0.533C0.324,-0.533 0.358,-0.527 0.389,-0.514C0.42,-0.501 0.446,-0.483 0.469,-0.46C0.492,-0.436 0.509,-0.408 0.521,-0.375C0.534,-0.342 0.54,-0.305 0.54,-0.264L0.54,-0.225L0.084,-0.225L0.084,-0.316L0.47,-0.316L0.405,-0.294C0.405,-0.321 0.4,-0.344 0.391,-0.363C0.382,-0.382 0.368,-0.397 0.351,-0.407C0.334,-0.418 0.313,-0.423 0.289,-0.423C0.264,-0.423 0.244,-0.418 0.226,-0.407C0.209,-0.397 0.195,-0.382 0.186,-0.363C0.177,-0.344 0.172,-0.321 0.172,-0.295L0.172,-0.232C0.172,-0.204 0.177,-0.18 0.187,-0.16C0.196,-0.14 0.21,-0.124 0.229,-0.114C0.248,-0.103 0.27,-0.097 0.295,-0.097C0.314,-0.097 0.33,-0.1 0.344,-0.105C0.359,-0.11 0.371,-0.118 0.381,-0.128C0.391,-0.138 0.398,-0.149 0.403,-0.163L0.534,-0.157C0.527,-0.124 0.513,-0.094 0.49,-0.069C0.468,-0.044 0.439,-0.024 0.405,-0.01C0.371,0.005 0.333,0.012 0.292,0.012Z" style="fill:rgb(231,246,255);fill-rule:nonzero;"/>
                </g>
                <g transform="matrix(100,0,0,100,529.23,2118.68)">
                    <path d="M0.236,0.01C0.199,0.01 0.167,0.002 0.14,-0.014C0.112,-0.03 0.091,-0.053 0.076,-0.084C0.061,-0.114 0.054,-0.151 0.054,-0.194L0.054,-0.522L0.198,-0.522L0.198,-0.22C0.198,-0.186 0.206,-0.16 0.223,-0.141C0.24,-0.123 0.264,-0.114 0.293,-0.114C0.314,-0.114 0.331,-0.118 0.347,-0.126C0.362,-0.135 0.374,-0.147 0.383,-0.165C0.392,-0.182 0.396,-0.203 0.396,-0.229L0.396,-0.522L0.54,-0.522L0.54,-0L0.399,-0L0.399,-0.135L0.42,-0.135C0.404,-0.089 0.381,-0.054 0.351,-0.028C0.321,-0.003 0.283,0.01 0.236,0.01Z" style="fill:rgb(231,246,255);fill-rule:nonzero;"/>
                </g>
                <g transform="matrix(100,0,0,100,588.605,2118.68)">
                    <path d="M0.292,0.012C0.238,0.012 0.192,0 0.153,-0.023C0.114,-0.046 0.084,-0.078 0.063,-0.119C0.041,-0.16 0.031,-0.207 0.031,-0.26C0.031,-0.314 0.042,-0.361 0.063,-0.402C0.085,-0.443 0.115,-0.475 0.153,-0.498C0.191,-0.522 0.236,-0.533 0.286,-0.533C0.324,-0.533 0.358,-0.527 0.389,-0.514C0.42,-0.501 0.446,-0.483 0.469,-0.46C0.492,-0.436 0.509,-0.408 0.521,-0.375C0.534,-0.342 0.54,-0.305 0.54,-0.264L0.54,-0.225L0.084,-0.225L0.084,-0.316L0.47,-0.316L0.405,-0.294C0.405,-0.321 0.4,-0.344 0.391,-0.363C0.382,-0.382 0.368,-0.397 0.351,-0.407C0.334,-0.418 0.313,-0.423 0.289,-0.423C0.264,-0.423 0.244,-0.418 0.226,-0.407C0.209,-0.397 0.195,-0.382 0.186,-0.363C0.177,-0.344 0.172,-0.321 0.172,-0.295L0.172,-0.232C0.172,-0.204 0.177,-0.18 0.187,-0.16C0.196,-0.14 0.21,-0.124 0.229,-0.114C0.248,-0.103 0.27,-0.097 0.295,-0.097C0.314,-0.097 0.33,-0.1 0.344,-0.105C0.359,-0.11 0.371,-0.118 0.381,-0.128C0.391,-0.138 0.398,-0.149 0.403,-0.163L0.534,-0.157C0.527,-0.124 0.513,-0.094 0.49,-0.069C0.468,-0.044 0.439,-0.024 0.405,-0.01C0.371,0.005 0.333,0.012 0.292,0.012Z" style="fill:rgb(231,246,255);fill-rule:nonzero;"/>
                </g>
                <g transform="matrix(100,0,0,100,399.006,2218.68)">
                    <path d="M0.057,-0L0.057,-0.728L0.207,-0.728L0.207,-0.127L0.534,-0.127L0.534,-0L0.057,-0Z" style="fill:rgb(231,246,255);fill-rule:nonzero;"/>
                </g>
                <g transform="matrix(100,0,0,100,454.865,2218.68)">
                    <path d="M0.292,0.012C0.238,0.012 0.192,0 0.153,-0.023C0.114,-0.046 0.084,-0.078 0.063,-0.119C0.041,-0.16 0.031,-0.207 0.031,-0.26C0.031,-0.314 0.042,-0.361 0.063,-0.402C0.085,-0.443 0.115,-0.475 0.153,-0.498C0.191,-0.522 0.236,-0.533 0.286,-0.533C0.324,-0.533 0.358,-0.527 0.389,-0.514C0.42,-0.501 0.446,-0.483 0.469,-0.46C0.492,-0.436 0.509,-0.408 0.521,-0.375C0.534,-0.342 0.54,-0.305 0.54,-0.264L0.54,-0.225L0.084,-0.225L0.084,-0.316L0.47,-0.316L0.405,-0.294C0.405,-0.321 0.4,-0.344 0.391,-0.363C0.382,-0.382 0.368,-0.397 0.351,-0.407C0.334,-0.418 0.313,-0.423 0.289,-0.423C0.264,-0.423 0.244,-0.418 0.226,-0.407C0.209,-0.397 0.195,-0.382 0.186,-0.363C0.177,-0.344 0.172,-0.321 0.172,-0.295L0.172,-0.232C0.172,-0.204 0.177,-0.18 0.187,-0.16C0.196,-0.14 0.21,-0.124 0.229,-0.114C0.248,-0.103 0.27,-0.097 0.295,-0.097C0.314,-0.097 0.33,-0.1 0.344,-0.105C0.359,-0.11 0.371,-0.118 0.381,-0.128C0.391,-0.138 0.398,-0.149 0.403,-0.163L0.534,-0.157C0.527,-0.124 0.513,-0.094 0.49,-0.069C0.468,-0.044 0.439,-0.024 0.405,-0.01C0.371,0.005 0.333,0.012 0.292,0.012Z" style="fill:rgb(231,246,255);fill-rule:nonzero;"/>
                </g>
                <g transform="matrix(100,0,0,100,511.75,2218.68)">
                    <path d="M0.054,-0L0.054,-0.522L0.193,-0.522L0.193,-0.433L0.195,-0.433C0.205,-0.465 0.22,-0.488 0.241,-0.504C0.262,-0.519 0.289,-0.527 0.322,-0.527C0.331,-0.527 0.339,-0.527 0.346,-0.526C0.353,-0.526 0.36,-0.525 0.366,-0.524L0.366,-0.4C0.36,-0.401 0.351,-0.402 0.34,-0.403C0.328,-0.403 0.316,-0.404 0.304,-0.404C0.284,-0.404 0.265,-0.399 0.249,-0.39C0.233,-0.381 0.221,-0.368 0.211,-0.35C0.202,-0.333 0.198,-0.312 0.198,-0.286L0.198,-0L0.054,-0Z" style="fill:rgb(231,246,255);fill-rule:nonzero;"/>
                </g>
                <g transform="matrix(100,0,0,100,550.568,2218.68)">
                    <path d="M0.198,-0.293L0.198,-0L0.054,-0L0.054,-0.522L0.194,-0.522L0.195,-0.388L0.174,-0.388C0.19,-0.433 0.213,-0.469 0.243,-0.494C0.273,-0.52 0.311,-0.532 0.357,-0.532C0.395,-0.532 0.427,-0.524 0.454,-0.508C0.481,-0.492 0.503,-0.469 0.518,-0.439C0.533,-0.408 0.54,-0.371 0.54,-0.328L0.54,-0L0.396,-0L0.396,-0.302C0.396,-0.336 0.388,-0.363 0.371,-0.381C0.354,-0.399 0.331,-0.409 0.3,-0.409C0.28,-0.409 0.262,-0.404 0.247,-0.396C0.232,-0.388 0.22,-0.375 0.211,-0.358C0.202,-0.341 0.198,-0.319 0.198,-0.293Z" style="fill:rgb(231,246,255);fill-rule:nonzero;"/>
                </g>
                <g transform="matrix(100,0,0,100,609.943,2218.68)">
                    <path d="M0.184,-0.151L0.184,-0.322L0.201,-0.322L0.381,-0.522L0.55,-0.522L0.316,-0.26L0.283,-0.26L0.184,-0.151ZM0.054,-0L0.054,-0.728L0.198,-0.728L0.198,-0L0.054,-0ZM0.392,-0L0.229,-0.228L0.324,-0.329L0.561,-0L0.392,-0Z" style="fill:rgb(231,246,255);fill-rule:nonzero;"/>
                </g>
                <g transform="matrix(100,0,0,100,665.656,2218.68)">
                    <path d="M0.236,0.01C0.199,0.01 0.167,0.002 0.14,-0.014C0.112,-0.03 0.091,-0.053 0.076,-0.084C0.061,-0.114 0.054,-0.151 0.054,-0.194L0.054,-0.522L0.198,-0.522L0.198,-0.22C0.198,-0.186 0.206,-0.16 0.223,-0.141C0.24,-0.123 0.264,-0.114 0.293,-0.114C0.314,-0.114 0.331,-0.118 0.347,-0.126C0.362,-0.135 0.374,-0.147 0.383,-0.165C0.392,-0.182 0.396,-0.203 0.396,-0.229L0.396,-0.522L0.54,-0.522L0.54,-0L0.399,-0L0.399,-0.135L0.42,-0.135C0.404,-0.089 0.381,-0.054 0.351,-0.028C0.321,-0.003 0.283,0.01 0.236,0.01Z" style="fill:rgb(231,246,255);fill-rule:nonzero;"/>
                </g>
                <g transform="matrix(100,0,0,100,725.031,2218.68)">
                    <rect x="0.054" y="-0.728" width="0.144" height="0.728" style="fill:rgb(231,246,255);fill-rule:nonzero;"/>
                </g>
                <g transform="matrix(100,0,0,100,750.861,2218.68)">
                    <path d="M0.344,-0.522L0.344,-0.41L0.009,-0.41L0.009,-0.522L0.344,-0.522ZM0.095,-0.661L0.239,-0.661L0.239,-0.159C0.239,-0.142 0.243,-0.13 0.25,-0.123C0.257,-0.116 0.27,-0.112 0.29,-0.112C0.297,-0.112 0.306,-0.112 0.317,-0.113C0.328,-0.113 0.337,-0.113 0.343,-0.113L0.347,-0.001C0.337,0 0.324,0.001 0.308,0.001C0.293,0.001 0.277,0.001 0.261,0.001C0.205,0.001 0.163,-0.01 0.136,-0.033C0.108,-0.056 0.095,-0.092 0.095,-0.139L0.095,-0.661Z" style="fill:rgb(231,246,255);fill-rule:nonzero;"/>
                </g>
                <g transform="matrix(100,0,0,100,787.678,2218.68)">
                    <path d="M0.236,0.01C0.199,0.01 0.167,0.002 0.14,-0.014C0.112,-0.03 0.091,-0.053 0.076,-0.084C0.061,-0.114 0.054,-0.151 0.054,-0.194L0.054,-0.522L0.198,-0.522L0.198,-0.22C0.198,-0.186 0.206,-0.16 0.223,-0.141C0.24,-0.123 0.264,-0.114 0.293,-0.114C0.314,-0.114 0.331,-0.118 0.347,-0.126C0.362,-0.135 0.374,-0.147 0.383,-0.165C0.392,-0.182 0.396,-0.203 0.396,-0.229L0.396,-0.522L0.54,-0.522L0.54,-0L0.399,-0L0.399,-0.135L0.42,-0.135C0.404,-0.089 0.381,-0.054 0.351,-0.028C0.321,-0.003 0.283,0.01 0.236,0.01Z" style="fill:rgb(231,246,255);fill-rule:nonzero;"/>
                </g>
                <g transform="matrix(100,0,0,100,847.053,2218.68)">
                    <path d="M0.054,-0L0.054,-0.522L0.193,-0.522L0.193,-0.433L0.195,-0.433C0.205,-0.465 0.22,-0.488 0.241,-0.504C0.262,-0.519 0.289,-0.527 0.322,-0.527C0.331,-0.527 0.339,-0.527 0.346,-0.526C0.353,-0.526 0.36,-0.525 0.366,-0.524L0.366,-0.4C0.36,-0.401 0.351,-0.402 0.34,-0.403C0.328,-0.403 0.316,-0.404 0.304,-0.404C0.284,-0.404 0.265,-0.399 0.249,-0.39C0.233,-0.381 0.221,-0.368 0.211,-0.35C0.202,-0.333 0.198,-0.312 0.198,-0.286L0.198,-0L0.054,-0Z" style="fill:rgb(231,246,255);fill-rule:nonzero;"/>
                </g>
                <g transform="matrix(100,0,0,100,399.006,2318.68)">
                    <path d="M0.269,0.011C0.195,0.011 0.136,-0.009 0.094,-0.049C0.051,-0.089 0.03,-0.146 0.03,-0.22L0.03,-0.268L0.173,-0.268L0.173,-0.219C0.173,-0.185 0.181,-0.159 0.198,-0.141C0.215,-0.124 0.238,-0.115 0.268,-0.115C0.297,-0.115 0.319,-0.124 0.336,-0.141C0.353,-0.159 0.362,-0.185 0.362,-0.219L0.362,-0.728L0.512,-0.728L0.512,-0.218C0.512,-0.145 0.49,-0.088 0.447,-0.049C0.403,-0.009 0.344,0.011 0.269,0.011Z" style="fill:rgb(231,246,255);fill-rule:nonzero;"/>
                </g>
                <g transform="matrix(100,0,0,100,455.695,2318.68)">
                    <path d="M0.292,0.012C0.238,0.012 0.192,0 0.153,-0.023C0.114,-0.046 0.084,-0.078 0.063,-0.119C0.041,-0.16 0.031,-0.207 0.031,-0.26C0.031,-0.314 0.042,-0.361 0.063,-0.402C0.085,-0.443 0.115,-0.475 0.153,-0.498C0.191,-0.522 0.236,-0.533 0.286,-0.533C0.324,-0.533 0.358,-0.527 0.389,-0.514C0.42,-0.501 0.446,-0.483 0.469,-0.46C0.492,-0.436 0.509,-0.408 0.521,-0.375C0.534,-0.342 0.54,-0.305 0.54,-0.264L0.54,-0.225L0.084,-0.225L0.084,-0.316L0.47,-0.316L0.405,-0.294C0.405,-0.321 0.4,-0.344 0.391,-0.363C0.382,-0.382 0.368,-0.397 0.351,-0.407C0.334,-0.418 0.313,-0.423 0.289,-0.423C0.264,-0.423 0.244,-0.418 0.226,-0.407C0.209,-0.397 0.195,-0.382 0.186,-0.363C0.177,-0.344 0.172,-0.321 0.172,-0.295L0.172,-0.232C0.172,-0.204 0.177,-0.18 0.187,-0.16C0.196,-0.14 0.21,-0.124 0.229,-0.114C0.248,-0.103 0.27,-0.097 0.295,-0.097C0.314,-0.097 0.33,-0.1 0.344,-0.105C0.359,-0.11 0.371,-0.118 0.381,-0.128C0.391,-0.138 0.398,-0.149 0.403,-0.163L0.534,-0.157C0.527,-0.124 0.513,-0.094 0.49,-0.069C0.468,-0.044 0.439,-0.024 0.405,-0.01C0.371,0.005 0.333,0.012 0.292,0.012Z" style="fill:rgb(231,246,255);fill-rule:nonzero;"/>
                </g>
                <g transform="matrix(100,0,0,100,512.58,2318.68)">
                    <path d="M0.344,-0.522L0.344,-0.41L0.009,-0.41L0.009,-0.522L0.344,-0.522ZM0.095,-0.661L0.239,-0.661L0.239,-0.159C0.239,-0.142 0.243,-0.13 0.25,-0.123C0.257,-0.116 0.27,-0.112 0.29,-0.112C0.297,-0.112 0.306,-0.112 0.317,-0.113C0.328,-0.113 0.337,-0.113 0.343,-0.113L0.347,-0.001C0.337,0 0.324,0.001 0.308,0.001C0.293,0.001 0.277,0.001 0.261,0.001C0.205,0.001 0.163,-0.01 0.136,-0.033C0.108,-0.056 0.095,-0.092 0.095,-0.139L0.095,-0.661Z" style="fill:rgb(231,246,255);fill-rule:nonzero;"/>
                </g>
                <g transform="matrix(100,0,0,100,549.396,2318.68)">
                    <path d="M0.049,-0L0.049,-0.095L0.308,-0.405L0.308,-0.407L0.051,-0.407L0.051,-0.522L0.479,-0.522L0.479,-0.421L0.228,-0.117L0.228,-0.115L0.484,-0.115L0.484,-0L0.049,-0Z" style="fill:rgb(231,246,255);fill-rule:nonzero;"/>
                </g>
                <g transform="matrix(100,0,0,100,602.765,2318.68)">
                    <path d="M0.344,-0.522L0.344,-0.41L0.009,-0.41L0.009,-0.522L0.344,-0.522ZM0.095,-0.661L0.239,-0.661L0.239,-0.159C0.239,-0.142 0.243,-0.13 0.25,-0.123C0.257,-0.116 0.27,-0.112 0.29,-0.112C0.297,-0.112 0.306,-0.112 0.317,-0.113C0.328,-0.113 0.337,-0.113 0.343,-0.113L0.347,-0.001C0.337,0 0.324,0.001 0.308,0.001C0.293,0.001 0.277,0.001 0.261,0.001C0.205,0.001 0.163,-0.01 0.136,-0.033C0.108,-0.056 0.095,-0.092 0.095,-0.139L0.095,-0.661Z" style="fill:rgb(231,246,255);fill-rule:nonzero;"/>
                </g>
                <g transform="matrix(100,0,0,100,639.582,2318.68)">
                    <path d="M0.069,-0.218L0.056,-0.728L0.21,-0.728L0.198,-0.218L0.069,-0.218ZM0.133,0.009C0.11,0.009 0.09,0.001 0.074,-0.015C0.058,-0.031 0.05,-0.051 0.05,-0.074C0.05,-0.097 0.058,-0.117 0.074,-0.133C0.09,-0.149 0.11,-0.157 0.133,-0.157C0.157,-0.157 0.177,-0.149 0.193,-0.133C0.209,-0.117 0.217,-0.097 0.217,-0.074C0.217,-0.051 0.209,-0.031 0.193,-0.015C0.177,0.001 0.157,0.009 0.133,0.009Z" style="fill:rgb(231,246,255);fill-rule:nonzero;"/>
                </g>
            </g>
        </g>
    </g>
</svg>
