<?xml version="1.0" encoding="UTF-8" standalone="no"?>
<!DOCTYPE svg PUBLIC "-//W3C//DTD SVG 1.1//EN" "http://www.w3.org/Graphics/SVG/1.1/DTD/svg11.dtd">
<svg width="100%" height="100%" viewBox="0 0 362 358" version="1.1" xmlns="http://www.w3.org/2000/svg" xmlns:xlink="http://www.w3.org/1999/xlink" xml:space="preserve" xmlns:serif="http://www.serif.com/" style="fill-rule:evenodd;clip-rule:evenodd;stroke-linejoin:round;stroke-miterlimit:2;">
    <g transform="matrix(1,0,0,1,-6598.51,-1776.39)">
        <g transform="matrix(3.95225,0,0,3.16136,14526.9,-3589.23)">
            <g transform="matrix(0.446918,0,0,0.672029,-1130.74,40.1862)">
                <g transform="matrix(0.417382,0,0,0.347012,-2127.42,1796.99)">
                    <path d="M636.859,1927.22L636.859,2159.47L404.604,2159.47L404.604,1996.74C404.604,1958.37 435.754,1927.22 474.122,1927.22L636.859,1927.22Z" style="fill:rgb(32,123,172);"/>
                </g>
                <g transform="matrix(0.417382,0,0,0.347012,-2019.54,1796.99)">
                    <path d="M636.859,1996.89L636.859,2159.47L404.604,2159.47L404.604,1927.22L567.182,1927.22C605.638,1927.22 636.859,1958.44 636.859,1996.89Z" style="fill:rgb(253,212,3);"/>
                </g>
                <g transform="matrix(0.417382,0,0,0.347012,-2127.42,1884.84)">
                    <path d="M636.859,1927.22L636.859,2159.47L474.28,2159.47C435.825,2159.47 404.604,2128.25 404.604,2089.8L404.604,1927.22L636.859,1927.22Z" style="fill:rgb(233,27,98);"/>
                </g>
                <g transform="matrix(0.417382,0,0,0.347012,-2019.54,1884.84)">
                    <path d="M636.859,1927.22L636.859,2089.8C636.859,2128.25 605.638,2159.47 567.182,2159.47L404.604,2159.47L404.604,1927.22L636.859,1927.22Z" style="fill:rgb(78,176,77);"/>
                </g>
                <g transform="matrix(0.566144,0,0,0.470693,-2184.44,1596.85)">
                    <g transform="matrix(150,0,0,150,442.102,2172.84)">
                        <path d="M0.269,0.011C0.195,0.011 0.136,-0.009 0.094,-0.049C0.051,-0.089 0.03,-0.146 0.03,-0.22L0.03,-0.268L0.173,-0.268L0.173,-0.219C0.173,-0.185 0.181,-0.159 0.198,-0.141C0.215,-0.124 0.238,-0.115 0.268,-0.115C0.297,-0.115 0.319,-0.124 0.336,-0.141C0.353,-0.159 0.362,-0.185 0.362,-0.219L0.362,-0.728L0.512,-0.728L0.512,-0.218C0.512,-0.145 0.49,-0.088 0.447,-0.049C0.403,-0.009 0.344,0.011 0.269,0.011Z" style="fill:white;fill-rule:nonzero;"/>
                    </g>
                </g>
                <g transform="matrix(0.566144,0,0,0.470693,-2184.44,1509)">
                    <g transform="matrix(150,0,0,150,429.578,2172.84)">
                        <path d="M0.014,-0L0.134,-0.728L0.292,-0.728L0.464,-0.356C0.47,-0.343 0.477,-0.327 0.485,-0.307C0.493,-0.288 0.501,-0.266 0.51,-0.243C0.519,-0.22 0.527,-0.196 0.534,-0.173L0.514,-0.143C0.516,-0.166 0.519,-0.192 0.523,-0.221C0.527,-0.251 0.531,-0.279 0.534,-0.305C0.538,-0.332 0.541,-0.354 0.544,-0.37L0.604,-0.728L0.754,-0.728L0.633,-0L0.476,-0L0.32,-0.336C0.312,-0.353 0.304,-0.372 0.294,-0.395C0.285,-0.417 0.274,-0.443 0.263,-0.472C0.252,-0.501 0.24,-0.533 0.227,-0.566L0.252,-0.58C0.249,-0.544 0.245,-0.51 0.24,-0.479C0.236,-0.447 0.233,-0.419 0.229,-0.395C0.226,-0.371 0.223,-0.351 0.22,-0.337L0.165,-0L0.014,-0Z" style="fill:white;fill-rule:nonzero;"/>
                    </g>
                </g>
                <g transform="matrix(0.566144,0,0,0.470693,-2076.55,1509)">
                    <g transform="matrix(150,0,0,150,442.716,2172.84)">
                        <path d="M0.057,-0L0.057,-0.728L0.207,-0.728L0.207,-0.127L0.534,-0.127L0.534,-0L0.057,-0Z" style="fill:rgb(32,123,172);fill-rule:nonzero;"/>
                    </g>
                </g>
                <g transform="matrix(0.566144,0,0,0.470693,-2076.55,1596.85)">
                    <g transform="matrix(166.667,0,0,166.667,462.394,2178.9)">
                        <path d="M0.061,-0.218L0.133,-0.728L0.288,-0.728L0.19,-0.218L0.061,-0.218ZM0.095,0.009C0.07,0.009 0.05,-0 0.035,-0.018C0.021,-0.036 0.015,-0.058 0.02,-0.083C0.023,-0.105 0.033,-0.122 0.05,-0.136C0.067,-0.15 0.086,-0.157 0.107,-0.157C0.132,-0.157 0.152,-0.148 0.167,-0.13C0.182,-0.112 0.187,-0.09 0.183,-0.065C0.18,-0.044 0.169,-0.027 0.153,-0.012C0.136,0.002 0.117,0.009 0.095,0.009Z" style="fill:white;fill-rule:nonzero;"/>
                    </g>
                </g>
            </g>
        </g>
    </g>
</svg>
